<svg width="200" height="200" viewBox="0 0 100 100" fill="none" xmlns="http://www.w3.org/2000/svg">
  <rect width="100" height="100" rx="24" fill="#0B132B"/>
  <defs>
    <linearGradient id="logoGradMain" x1="0%" y1="100%" x2="100%" y2="0%">
      <stop offset="0%" stop-color="#10B981" />
      <stop offset="40%" stop-color="#20C77A" />
      <stop offset="75%" stop-color="#29D3D8" />
      <stop offset="100%" stop-color="#32F5A0" />
    </linearGradient>
    <linearGradient id="logoGradDark" x1="0%" y1="0%" x2="100%" y2="100%">
      <stop offset="0%" stop-color="#059669" stop-opacity="0.9" />
      <stop offset="100%" stop-color="#0284C7" stop-opacity="0.7" />
    </linearGradient>
  </defs>
  <path d="M 40 22 L 20 78 L 32 78 L 44 45 L 52 58 L 42 78 L 54 78 L 62 62 L 48 37 Z" fill="url(#logoGradDark)"/>
  <path d="M 42 22 L 52 22 L 35 78 L 22 78 Z" fill="url(#logoGradMain)" opacity="0.9"/>
  <path d="M 22 70 L 38 48 L 50 60 L 72 26 L 62 26 L 62 18 L 84 18 L 84 40 L 76 40 L 76 30 L 52 68 L 38 54 L 26 72 Z" fill="url(#logoGradMain)"/>
</svg>
